<svg width="48" height="48" viewBox="0 0 48 48" fill="none" xmlns="http://www.w3.org/2000/svg">
<g clip-path="url(#clip0_1_278)">
<path d="M40.166 30.4L42.57 31.842C42.7183 31.9308 42.8411 32.0565 42.9263 32.2069C43.0116 32.3572 43.0564 32.5271 43.0564 32.7C43.0564 32.8729 43.0116 33.0428 42.9263 33.1931C42.8411 33.3435 42.7183 33.4692 42.57 33.558L25.03 44.082C24.719 44.2689 24.3629 44.3676 24 44.3676C23.6371 44.3676 23.2811 44.2689 22.97 44.082L5.43001 33.558C5.28171 33.4692 5.15895 33.3435 5.07371 33.1931C4.98847 33.0428 4.94366 32.8729 4.94366 32.7C4.94366 32.5271 4.98847 32.3572 5.07371 32.2069C5.15895 32.0565 5.28171 31.9308 5.43001 31.842L7.83401 30.4L24 40.1L40.166 30.4ZM40.166 21L42.57 22.442C42.7183 22.5308 42.8411 22.6565 42.9263 22.8069C43.0116 22.9572 43.0564 23.1271 43.0564 23.3C43.0564 23.4729 43.0116 23.6428 42.9263 23.7931C42.8411 23.9435 42.7183 24.0692 42.57 24.158L24 35.3L5.43001 24.158C5.28171 24.0692 5.15895 23.9435 5.07371 23.7931C4.98847 23.6428 4.94366 23.4729 4.94366 23.3C4.94366 23.1271 4.98847 22.9572 5.07371 22.8069C5.15895 22.6565 5.28171 22.5308 5.43001 22.442L7.83401 21L24 30.7L40.166 21ZM25.028 2.618L42.57 13.142C42.7183 13.2308 42.8411 13.3565 42.9263 13.5069C43.0116 13.6572 43.0564 13.8271 43.0564 14C43.0564 14.1729 43.0116 14.3428 42.9263 14.4931C42.8411 14.6435 42.7183 14.7692 42.57 14.858L24 26L5.43001 14.858C5.28171 14.7692 5.15895 14.6435 5.07371 14.4931C4.98847 14.3428 4.94366 14.1729 4.94366 14C4.94366 13.8271 4.98847 13.6572 5.07371 13.5069C5.15895 13.3565 5.28171 13.2308 5.43001 13.142L22.97 2.618C23.2811 2.43112 23.6371 2.33238 24 2.33238C24.3629 2.33238 24.719 2.43112 25.03 2.618H25.028ZM24 6.664L11.774 14L24 21.336L36.226 14L24 6.664Z" fill="#777777"/>
</g>
<defs>
<clipPath id="clip0_1_278">
<rect width="48" height="48" fill="white"/>
</clipPath>
</defs>
</svg>
