<svg width="32" height="42" viewBox="0 0 32 42" fill="none" xmlns="http://www.w3.org/2000/svg">
<path d="M11.946 32H20.054C20.318 29.596 21.544 27.612 23.534 25.446C23.76 25.202 25.198 23.712 25.368 23.5C26.7806 21.7353 27.666 19.6074 27.9223 17.3615C28.1785 15.1157 27.7952 12.8431 26.8165 10.8055C25.8378 8.76789 24.3035 7.04816 22.3903 5.84436C20.477 4.64055 18.2627 4.00161 16.0022 4.00113C13.7417 4.00065 11.5271 4.63864 9.61336 5.84163C7.6996 7.04462 6.16455 8.76369 5.18497 10.8009C4.20538 12.838 3.82112 15.1105 4.07643 17.3565C4.33173 19.6025 5.21622 21.7307 6.62804 23.496C6.80004 23.71 8.24204 25.202 8.46404 25.444C10.456 27.612 11.682 29.596 11.946 32ZM20 36H12V38H20V36ZM3.50804 26C1.62442 23.6466 0.443938 20.8089 0.10257 17.8139C-0.238797 14.8189 0.272843 11.7884 1.57855 9.07149C2.88426 6.35456 4.93091 4.06175 7.48275 2.45717C10.0346 0.852591 12.9878 0.00152405 16.0022 0.00200674C19.0166 0.00248943 21.9695 0.854502 24.5209 2.4599C27.0722 4.06529 29.1181 6.35876 30.423 9.07611C31.7278 11.7935 32.2385 14.8241 31.8961 17.819C31.5538 20.8139 30.3724 23.6512 28.488 26.004C27.248 27.548 24 30 24 33V38C24 39.0609 23.5786 40.0783 22.8285 40.8284C22.0783 41.5786 21.0609 42 20 42H12C10.9392 42 9.92176 41.5786 9.17162 40.8284C8.42147 40.0783 8.00004 39.0609 8.00004 38V33C8.00004 30 4.75004 27.548 3.50804 26ZM18 16.008H23L14 28.008V20.008H9.00004L18 8V16.01V16.008Z" fill="#777777"/>
</svg>
