<svg width="44" height="36" viewBox="0 0 44 36" fill="none" xmlns="http://www.w3.org/2000/svg">
<path d="M24 27.876V32H34V36H10V32H20V27.876C16.1334 27.3884 12.5776 25.5065 10 22.5835C7.42237 19.6605 6.00007 15.8972 6 12V0H38V12C37.9999 15.8972 36.5776 19.6605 34 22.5835C31.4224 25.5065 27.8666 27.3884 24 27.876ZM10 4V12C10 15.1826 11.2643 18.2348 13.5147 20.4853C15.7652 22.7357 18.8174 24 22 24C25.1826 24 28.2348 22.7357 30.4853 20.4853C32.7357 18.2348 34 15.1826 34 12V4H10ZM0 4H4V12H0V4ZM40 4H44V12H40V4Z" fill="#777777"/>
</svg>
